# AST/ASF file generated using VICON BodyLanguage
# -----------------------------------------------
:version 1.10
:name VICON
:units
  mass 1.0
  length 0.45
  angle deg
:documentation
   .ast/.asf automatically generated from VICON data using
   VICON BodyBuilder and BodyLanguage model FoxedUp or BRILLIANT.MOD
:root
   order TX TY TZ RX RY RZ
   axis XYZ
   position 0 0 0  
   orientation 0 0 0 
:bonedata
  begin
     id 1 
     name lhipjoint
     direction 0.671379 -0.66392 0.329334 
     length 2.38647 
     axis 0 0 0  XYZ
  end
  begin
     id 2 
     name lfemur
     direction 0.34202 -0.939693 0  
     length 6.48179  
     axis 0 0 20  XYZ
    dof rx ry rz
    limits (-160.0 20.0)
           (-70.0 70.0)
           (-60.0 70.0)
  end
  begin
     id 3 
     name ltibia
     direction 0.34202 -0.939693 0   
     length 6.86524   
     axis 0 0 20   XYZ
    dof rx
    limits (-10.0 170.0)
  end
  begin
     id 4 
     name lfoot
     direction 0.204886 -0.562919 0.800715   
     length 1.73031   
     axis -90 7.62852e-016 20   XYZ
    dof rx rz
    limits (-45.0 90.0)
           (-70.0 20.0)
  end
  begin
     id 5 
     name ltoes
     direction 1.53548e-011 -4.21841e-011 1   
     length 0.828161   
     axis -90 7.62852e-016 20   XYZ
    dof rx
    limits (-90.0 20.0)
  end
  begin
     id 6 
     name rhipjoint
     direction -0.662732 -0.670855 0.332775   
     length 2.3618  
     axis 0 0 0  XYZ 
  end
  begin
     id 7 
     name rfemur
     direction -0.34202 -0.939693 0   
     length 6.3025   
     axis 0 0 -20   XYZ
    dof rx ry rz
    limits (-160.0 20.0)
           (-70.0 70.0)
           (-70.0 60.0)
  end
  begin
     id 8 
     name rtibia
     direction -0.34202 -0.939693 0   
     length 6.8732   
     axis 0 0 -20   XYZ
    dof rx
    limits (-10.0 170.0)
 end
 begin
     id 9 
     name rfoot
     direction -0.173856 -0.477665 0.861168   
     length 1.54784  
     axis -90 -7.62852e-016 -20   XYZ
    dof rx rz
    limits (-45.0 90.0)
           (-20.0 70.0)
  end
  begin
     id 10 
     name rtoes
     direction -1.53562e-011 -4.21802e-011 1   
     length 0.759618   
     axis -90 -7.62852e-016 -20   XYZ
    dof rx
    limits (-90.0 20.0)
  end
  begin
     id 11 
     name lowerback
     direction -0.0278357 0.999497 -0.0151789   
     length 1.97203   
     axis 0 0 0   XYZ
    dof rx ry rz
    limits (-20.0 45.0)
           (-30.0 30.0)
           (-30.0 30.0)
  end
  begin
     id 12 
     name upperback
     direction -0.00360622 0.997542 0.0699804   
     length 1.94709   
     axis 0 0 0   XYZ
    dof rx ry rz
    limits (-20.0 45.0)
           (-30.0 30.0)
           (-30.0 30.0)
  end
  begin
     id 13 
     name thorax
     direction 0.00907706 0.997048 0.0762461   
     length 1.95722   
     axis 0 0 0   XYZ
    dof rx ry rz
    limits (-20.0 45.0)
           (-30.0 30.0)
           (-30.0 30.0)
  end
  begin
     id 14 
     name lowerneck
     direction -0.0481835 0.99872 -0.0153927   
     length 1.63078   
     axis 0 0 0   XYZ
    dof rx ry rz
    limits (-20.0 45.0)
           (-30.0 30.0)
           (-30.0 30.0)
  end
  begin
     id 15 
     name upperneck
     direction 0.0859716 0.979226 -0.183644   
     length 1.62591   
     axis 0 0 0   XYZ
    dof rx ry rz
    limits (-20.0 45.0)
           (-30.0 30.0)
           (-30.0 30.0)
  end
  begin
     id 16
     name head
     direction 0.0324821 0.997629 -0.0606773  
     length 1.64811  
     axis 0 0 0   XYZ
    dof rx ry rz
    limits (-20.0 45.0)
           (-30.0 30.0)
           (-30.0 30.0)
  end
  begin
     id 17 
     name lclavicle
     direction 0.939609 0.311019 0.142835  
     length 3.70647  
     axis 0 0 0   XYZ
    dof ry rz
    limits (-20.0 10.0)
           (0.0 20.0)
  end
  begin
     id 18 
     name lhumerus
     direction 1 -4.48963e-011 -1.59838e-027   
     length 4.59207   
     axis 180 -30 -90   XYZ
    dof rx ry rz
    limits (-60.0 90.0)
           (-90.0 90.0)
           (-90.0 90.0)
  end
  begin
     id 19
     name lradius
     direction 1 -4.48957e-011 -1.3483e-026   
     length 2.98109   
     axis 180 -30 -90   XYZ
    dof rx
    limits (-10.0 170.0)
  end
  begin
     id 20
     name lwrist
     direction 1 -4.48954e-011 -3.11579e-026   
     length 1.49055   
     axis 2.00652e-014 90 90   XYZ
    dof ry
    limits (-180.0 0.0)
 end
  begin
     id 21 
     name lhand
     direction 1 -4.4911e-011 -6.23158e-026   
     length 0.480203   
     axis 3.97628e-014 90 90   XYZ
    dof rx rz
    limits (-90.0 90.0)
           (-45.0 45.0)
  end
  begin
     id 22 
     name lfingers
     direction 1 -4.48893e-011 -1.24632e-025   
     length 0.387152   
     axis 7.95256e-014 90 90   XYZ
    dof rx
    limits (0.0 90.0)
  end
  begin
     id 23
     name lthumb
     direction 0.707107 -6.35013e-011 0.707107   
     length 0.555875   
     axis -90 45 2.85299e-015   XYZ
    dof rx rz
    limits (-45.0 45.0)
           (-45.0 45.0)
  end
  begin
     id 24 
     name rclavicle
     direction -0.950396 0.30392 0.0661859   
     length 3.70894  
     axis 0 0 0   XYZ 
    dof ry rz
    limits (-10.0 20.0)
           (-20.0 0.0)
  end
  begin
     id 25 
     name rhumerus
     direction -1 -4.48957e-011 -2.96677e-027  
     length 4.76508   
     axis 180 30 90   XYZ
    dof rx ry rz
    limits (-90.0 60.0)
           (-90.0 90.0)
           (-90.0 90.0)
  end
  begin
     id 26 
     name rradius
     direction -1 -4.48974e-011 -1.44501e-026   
     length 2.78902   
     axis 180 30 90   XYZ
    dof rx
    limits (-10.0 170.0)
  end
  begin
     id 27 
     name rwrist
     direction -1 -4.48978e-011 -3.11579e-026   
     length 1.39451   
     axis 2.00652e-014 -90 -90   XYZ
    dof ry
    limits (-180.0 0.0)
  end
  begin
     id 28
     name rhand
     direction -1 -4.48956e-011 -6.23158e-026   
     length 0.721303   
     axis 3.97628e-014 -90 -90   XYZ
    dof rx rz
    limits (-90.0 90.0)
           (-45.0 45.0)
  end
  begin
     id 29
     name rfingers
     direction -1 -4.4899e-011 -1.24632e-025   
     length 0.581533   
     axis 7.95256e-014 -90 -90   XYZ
    dof rx
    limits (0.0 90.0)
  end
  begin
     id 30
     name rthumb
     direction -0.707107 -6.34911e-011 0.707107   
     length 0.834968   
     axis -90 -45 -2.85299e-015   XYZ
    dof rx rz
    limits (-45.0 45.0)
           (-45.0 45.0)
  end
:hierarchy
  begin
    root lhipjoint rhipjoint lowerback
    lhipjoint lfemur
    lfemur ltibia
    ltibia lfoot
    lfoot ltoes
    rhipjoint rfemur
    rfemur rtibia
    rtibia rfoot
    rfoot rtoes
    lowerback upperback
    upperback thorax
    thorax lowerneck lclavicle rclavicle
    lowerneck upperneck
    upperneck head
    lclavicle lhumerus
    lhumerus lradius
    lradius lwrist
    lwrist lhand lthumb
    lhand lfingers
    rclavicle rhumerus
    rhumerus rradius
    rradius rwrist
    rwrist rhand rthumb
    rhand rfingers
  end

#!OML:ASF I:\salsa\salsa 7_09\Patient 1\Session 1\dancerfemale.ASF
:FULLY-SPECIFIED
:DEGREES
670
root -5.78817 16.2204 2.11506 239.371 -263.815 232.667
lowerback 1.84483 5.31932 -3.59216
upperback -4.04837 6.90652 -3.47544
thorax -5.22225 3.53973 -2.0549
lowerneck 5.44346 -6.88201 -12.1759
upperneck 19.09 -9.51635 5.78922
head 5.78795 -4.87656 3.49396
rclavicle 1.34304e-014 2.70347e-014
rhumerus -7.63073 6.71605 -94.4112
rradius 64.7266
rwrist -16.7131
rhand -14.6067 62.3792
rfingers 7.12502
rthumb 11.5441 32.7171
lclavicle 1.34304e-014 2.70347e-014
lhumerus -21.5645 26.0391 51.053
lradius 111.674
lwrist 53.5256
lhand 33.4482 54.8575
lfingers 7.12502
lthumb 56.7774 71.6274
rfemur -32.0076 -4.07134 20.6109
rtibia 31.1527
rfoot -6.7706 5.23231
rtoes -23.2641
lfemur -1.73139 -5.77857 -34.573
ltibia 33.9472
lfoot -4.79871 4.71548
ltoes 20.4492
671
root -5.48661 16.2213 2.14213 215.814 -262.768 209.087
lowerback 1.67586 5.71633 -2.27173
upperback -4.314 7.49782 -3.31525
thorax -5.25116 3.78401 -2.63942
lowerneck 5.00994 -6.4313 -11.747
upperneck 19.0211 -8.86776 5.68498
head 5.74583 -4.5392 3.41535
rclavicle 1.25564e-013 1.47101e-014
rhumerus -11.2542 7.52086 -95.2484
rradius 67.878
rwrist -15.5827
rhand -14.8557 63.1576
rfingers 7.12502
rthumb 11.3039 33.4822
lclavicle 1.25564e-013 1.47101e-014
lhumerus -25.8582 28.896 46.6999
lradius 113.376
lwrist 55.5752
lhand 35.5905 56.0505
lfingers 7.12502
lthumb 58.6504 71.1736
rfemur -30.5974 -5.02971 22.5776
rtibia 30.5616
rfoot -7.66207 10.2018
rtoes -24.7115
lfemur -2.33232 -5.33451 -34.0339
ltibia 36.5236
lfoot -2.84106 7.60543
ltoes 21.5989
672
root -5.17542 16.2165 2.17402 202.239 -261.053 195.612
lowerback 1.59038 6.12184 -1.22136
upperback -4.5216 8.08631 -3.23148
thorax -5.27302 4.03499 -3.1568
lowerneck 4.68409 -6.07624 -11.2677
upperneck 18.9531 -8.35786 5.58057
head 5.70072 -4.26594 3.32372
rclavicle -6.24184e-014 8.74653e-015
rhumerus -14.7055 8.04623 -96.0586
rradius 71.1013
rwrist -14.4916
rhand -14.988 64.1085
rfingers 7.12502
rthumb 11.1763 34.4262
lclavicle -6.24184e-014 8.74653e-015
lhumerus -29.936 31.8231 42.6
lradius 114.693
lwrist 57.4155
lhand 37.3849 57.3813
lfingers 7.12502
lthumb 60.1943 70.9559
rfemur -29.1607 -7.00125 24.2833
rtibia 30.1656
rfoot -7.60967 15.1318
rtoes -23.0969
lfemur -3.17006 -4.82051 -33.7755
ltibia 39.5714
lfoot -0.401156 10.8449
ltoes 22.9977
673
root -4.88224 16.1792 2.21858 195.276 -259.619 188.944
lowerback 1.84495 6.40345 -0.606823
upperback -4.61646 8.48353 -3.13245
thorax -5.42796 4.20367 -3.44676
lowerneck 4.3909 -5.79473 -10.8401
upperneck 18.7731 -7.96269 5.53315
head 5.63272 -4.04998 3.25253
rclavicle -1.13456e-013 -5.1684e-015
rhumerus -17.9288 8.68568 -96.694
rradius 74.6761
rwrist -14.551
rhand -14.3236 65.0406
rfingers 7.12502
rthumb 11.8171 35.394
lclavicle -1.13456e-013 -5.1684e-015
lhumerus -34.0541 33.8118 38.1894
lradius 116.001
lwrist 59.7091
lhand 38.1666 57.9902
lfingers 7.12502
lthumb 60.8587 70.8362
rfemur -27.907 -9.76852 25.5983
rtibia 30.3066
rfoot -7.35071 20.1699
rtoes -20.4471
lfemur -4.70643 -1.80092 -32.8035
ltibia 43.4894
lfoot 3.16245 11.5674
ltoes 24.4376
674
root -4.58784 16.1426 2.26975 190.362 -258.225 184.229
lowerback 1.86137 6.69848 -0.234534
upperback -4.60399 8.89821 -2.93658
thorax -5.37918 4.3963 -3.46775
lowerneck 4.00312 -5.592 -10.6278
upperneck 18.5419 -7.68089 5.5607
head 5.58886 -3.90011 3.23034
rclavicle -7.30285e-014 8.34896e-015
rhumerus -20.9662 9.44139 -97.1358
rradius 78.519
rwrist -15.0729
rhand -13.0945 66.0318
rfingers 7.12502
rthumb 13.0021 36.457
lclavicle -7.30285e-014 8.34896e-015
lhumerus -38.0361 35.7716 33.8946
lradius 117.045
lwrist 61.7574
lhand 38.7968 58.6673
lfingers 7.12502
lthumb 61.3905 70.9
rfemur -26.876 -12.809 26.7656
rtibia 30.7247
rfoot -6.80205 25.2317
rtoes -16.9333
lfemur -6.85999 1.43861 -31.6204
ltibia 48.2025
lfoot 6.94611 12.0852
ltoes 24.3366
675
root -4.30481 16.0878 2.32454 185.661 -257.156 179.841
lowerback 2.09837 6.93067 0.28145
upperback -4.5628 9.23582 -2.65929
thorax -5.41801 4.54306 -3.50541
lowerneck 3.67117 -5.48359 -10.5312
upperneck 18.3453 -7.52498 5.56488
head 5.56341 -3.8204 3.21425
rclavicle -6.69035e-014 0
rhumerus -23.9966 9.83087 -97.5797
rradius 82.2709
rwrist -14.7884
rhand -11.9451 67.181
rfingers 7.12502
rthumb 14.1099 37.68
lclavicle -6.69035e-014 0
lhumerus -41.9396 37.3418 29.5046
lradius 117.916
lwrist 63.5313
lhand 39.5977 59.2572
lfingers 7.12502
lthumb 62.0609 70.6751
rfemur -25.7224 -15.6662 27.8604
rtibia 31.3126
rfoot -6.32932 29.5077
rtoes -12.7449
lfemur -9.2625 4.6379 -30.0195
ltibia 53.5971
lfoot 10.8661 12.0854
ltoes 26.3778
676
root -4.02726 16.0414 2.37988 180.644 -256.396 175.088
lowerback 2.50807 7.1175 1.08101
upperback -4.63475 9.53447 -2.38762
thorax -5.62787 4.65378 -3.73304
lowerneck 3.45262 -5.38218 -10.2985
upperneck 18.1366 -7.38619 5.56839
head 5.51108 -3.7398 3.17869
rclavicle 1.77415e-014 1.27222e-014
rhumerus -27.0363 9.69751 -98.0618
rradius 85.7844
rwrist -13.4625
rhand -11.28 68.1191
rfingers 7.12502
rthumb 14.7508 38.664
lclavicle 1.77415e-014 1.27222e-014
lhumerus -45.6503 38.4394 25.0918
lradius 118.601
lwrist 65.2897
lhand 40.932 60.2536
lfingers 7.12502
lthumb 63.1631 70.2197
rfemur -24.3048 -17.8943 28.9358
rtibia 31.582
rfoot -6.12075 32.5843
rtoes -9.3179
lfemur -12.2801 6.93469 -27.8952
ltibia 59.2825
lfoot 15.0963 12.2851
ltoes 25.3524
677
root -3.75221 15.9857 2.43263 175.248 -255.727 169.767
lowerback 2.76941 7.3508 2.18688
upperback -4.76622 9.92447 -2.12046
thorax -5.7548 4.79803 -4.11519
lowerneck 3.04672 -5.37914 -9.77858
upperneck 18.0924 -7.33805 5.3566
head 5.53127 -3.69341 3.01785
rclavicle 5.69518e-014 -9.54166e-015
rhumerus -29.8768 9.24558 -98.4059
rradius 89.1405
rwrist -11.4696
rhand -11.1171 68.8075
rfingers 7.12502
rthumb 14.9077 39.364
lclavicle 5.69518e-014 -9.54166e-015
lhumerus -49.038 40.3801 21.2536
lradius 119.167
lwrist 66.5229
lhand 42.9435 62.6363
lfingers 7.12502
lthumb 64.7856 70.166
rfemur -22.7544 -18.9227 30.0498
rtibia 31.4651
rfoot -6.43813 34.2335
rtoes -7.13432
lfemur -15.607 8.71547 -25.4313
ltibia 64.8601
lfoot 19.422 12.4599
ltoes 29.1649
678
root -3.48182 15.933 2.48276 168.808 -255.004 163.361
lowerback 2.99207 7.65643 3.69857
upperback -4.826 10.4479 -1.74106
thorax -5.71497 4.99748 -4.58558
lowerneck 2.69723 -5.55985 -9.33461
upperneck 18.0665 -7.53163 5.06362
head 5.5686 -3.77491 2.83167
rclavicle -8.99501e-015 -6.36111e-015
rhumerus -32.3198 8.71302 -98.5796
rradius 92.3626
rwrist -9.5029
rhand -10.9025 69.5615
rfingers 7.12502
rthumb 15.1145 40.1334
lclavicle -8.99501e-015 -6.36111e-015
lhumerus -51.7578 41.1191 17.8293
lradius 119.65
lwrist 68.2952
lhand 43.6753 63.3434
lfingers 7.12502
lthumb 65.3627 69.9046
rfemur -20.7944 -18.1589 31.3358
rtibia 30.9024
rfoot -7.7605 34.027
rtoes -6.24947
lfemur -19.0959 10.2662 -22.4234
ltibia 69.9681
lfoot 23.5946 12.3921
ltoes 26.429
679
root -3.21598 15.878 2.53106 161.709 -254.207 156.515
lowerback 3.43021 7.97975 5.49149
upperback -4.78723 11.0355 -1.26935
thorax -5.63905 5.22011 -5.12845
lowerneck 2.78172 -5.68292 -9.04044
upperneck 17.668 -7.71519 5.04871
head 5.42965 -3.85135 2.7725
rclavicle 4.60932e-014 3.18055e-015
rhumerus -34.3121 8.20059 -98.7277
rradius 95.2996
rwrist -8.0264
rhand -10.3754 70.5222
rfingers 7.12502
rthumb 15.6221 41.133
lclavicle 4.60932e-014 3.18055e-015
lhumerus -54.0175 41.8647 15.0533
lradius 119.933
lwrist 69.8059
lhand 45.2455 63.9179
lfingers 7.12502
lthumb 66.5736 68.236
rfemur -18.2955 -16.0374 32.7325
rtibia 30.0253
rfoot -10.0082 32.4506
rtoes -8.0186
lfemur -22.2302 11.7114 -19.0069
ltibia 74.4247
lfoot 26.8294 12.2919
ltoes 31.0342
680
root -2.94817 15.8145 2.57422 155.028 -253.378 150.386
lowerback 4.09135 8.30781 7.29629
upperback -4.70343 11.664 -0.827667
thorax -5.60856 5.46078 -5.73389
lowerneck 3.06469 -5.66986 -8.65287
upperneck 17.1115 -7.75157 5.23755
head 5.19954 -3.84128 2.77817
rclavicle -1.6852e-013 -1.11319e-014
rhumerus -35.7658 7.67372 -98.879
rradius 97.7113
rwrist -6.8233
rhand -9.92651 71.3291
rfingers 7.12502
rthumb 16.0544 41.9742
lclavicle -1.6852e-013 -1.11319e-014
lhumerus -55.9119 42.368 12.5286
lradius 120.084
lwrist 71.7319
lhand 46.3358 64.3603
lfingers 7.12502
lthumb 67.3898 66.9766
rfemur -15.2655 -13.4569 34.0487
rtibia 28.7455
rfoot -12.2481 30.1128
rtoes -10.0799
lfemur -24.7952 13.0052 -15.6137
ltibia 78.2067
lfoot 23.916 10.8755
ltoes 32.0722
681
root -2.67982 15.7512 2.60677 149.362 -252.564 145.392
lowerback 4.77574 8.65276 8.91542
upperback -4.56178 12.3255 -0.408246
thorax -5.53261 5.73104 -6.25697
lowerneck 3.25887 -5.56512 -8.01596
upperneck 16.4877 -7.64831 5.38096
head 4.94203 -3.75173 2.73408
rclavicle -6.89037e-014 -1.74931e-014
rhumerus -36.4795 7.34363 -98.8344
rradius 99.5731
rwrist -5.59509
rhand -10.0487 72.9639
rfingers 7.12502
rthumb 15.9367 43.5996
lclavicle -6.89037e-014 -1.74931e-014
lhumerus -57.6533 42.6096 10.1073
lradius 120.171
lwrist 73.8576
lhand 46.6539 64.4004
lfingers 7.12502
lthumb 67.6238 66.4964
rfemur -12.3076 -11.2837 35.2673
rtibia 27.6258
rfoot -14.4368 27.9575
rtoes -11.8577
lfemur -27.1936 14.0261 -12.5662
ltibia 81.4272
lfoot 19.1165 9.208
ltoes 31.2122
682
root -2.41187 15.7155 2.62714 145.013 -251.949 141.368
lowerback 5.08763 9.05219 10.24
upperback -4.47518 13.0155 -0.0688348
thorax -5.31918 6.0399 -6.63852
lowerneck 3.28882 -5.28747 -6.87514
upperneck 15.6618 -7.26383 5.23272
head 4.60334 -3.51415 2.52583
rclavicle -1.50828e-014 3.18055e-014
rhumerus -36.455 7.28698 -98.5181
rradius 100.953
rwrist -4.17859
rhand -10.5055 73.8694
rfingers 7.12502
rthumb 15.4968 44.4705
lclavicle -1.50828e-014 3.18055e-014
lhumerus -59.3112 42.8165 7.95687
lradius 120.21
lwrist 75.4433
lhand 47.5667 64.8739
lfingers 7.12502
lthumb 68.284 65.413
rfemur -10.0747 -10.3736 36.2983
rtibia 26.7733
rfoot -16.298 27.0158
rtoes -11.7772
lfemur -29.999 14.4451 -10.1169
ltibia 83.8926
lfoot 13.0685 8.03984
ltoes 21.1134
683
root -2.15459 15.6359 2.63319 142.184 -251.648 138.193
lowerback 5.06677 9.59514 11.0445
upperback -4.85874 13.8568 0.0834513
thorax -5.44523 6.40977 -6.93066
lowerneck 3.23664 -4.74927 -5.54315
upperneck 15.0371 -6.5084 5.03116
head 4.31818 -3.08288 2.28001
rclavicle -4.62423e-014 -2.38542e-015
rhumerus -36.464 7.11067 -98.1712
rradius 102.244
rwrist -2.72461
rhand -10.4715 74.9522
rfingers 7.12502
rthumb 15.5296 45.5558
lclavicle -4.62423e-014 -2.38542e-015
lhumerus -60.6982 42.6255 6.1483
lradius 120.193
lwrist 76.5823
lhand 48.5423 65.77
lfingers 7.12502
lthumb 68.9697 64.5357
rfemur -9.16866 -10.7414 37.0085
rtibia 26.5055
rfoot -17.5299 27.5145
rtoes -9.52636
lfemur -33.9244 14.3191 -8.49907
ltibia 85.9621
lfoot 8.20962 7.76254
ltoes 22.2272
